<svg id="visual" viewBox="0 0 960 540" width="960" height="540" xmlns="http://www.w3.org/2000/svg" xmlns:xlink="http://www.w3.org/1999/xlink" version="1.1"><rect x="0" y="0" width="960" height="540" fill="#0e1217"></rect><path d="M0 397L13.3 399.5C26.7 402 53.3 407 80 405.7C106.7 404.3 133.3 396.7 160 392.5C186.7 388.3 213.3 387.7 240 395.5C266.7 403.3 293.3 419.7 320 428.7C346.7 437.7 373.3 439.3 400 440.8C426.7 442.3 453.3 443.7 480 437.3C506.7 431 533.3 417 560 415.8C586.7 414.7 613.3 426.3 640 424.3C666.7 422.3 693.3 406.7 720 402.3C746.7 398 773.3 405 800 404.3C826.7 403.7 853.3 395.3 880 395.8C906.7 396.3 933.3 405.7 946.7 410.3L960 415L960 541L946.7 541C933.3 541 906.7 541 880 541C853.3 541 826.7 541 800 541C773.3 541 746.7 541 720 541C693.3 541 666.7 541 640 541C613.3 541 586.7 541 560 541C533.3 541 506.7 541 480 541C453.3 541 426.7 541 400 541C373.3 541 346.7 541 320 541C293.3 541 266.7 541 240 541C213.3 541 186.7 541 160 541C133.3 541 106.7 541 80 541C53.3 541 26.7 541 13.3 541L0 541Z" fill="#fa7268"></path><path d="M0 447L13.3 447.3C26.7 447.7 53.3 448.3 80 451.5C106.7 454.7 133.3 460.3 160 456C186.7 451.7 213.3 437.3 240 435.5C266.7 433.7 293.3 444.3 320 442.7C346.7 441 373.3 427 400 424.5C426.7 422 453.3 431 480 434.3C506.7 437.7 533.3 435.3 560 431C586.7 426.7 613.3 420.3 640 417.5C666.7 414.7 693.3 415.3 720 421.7C746.7 428 773.3 440 800 447C826.7 454 853.3 456 880 454.3C906.7 452.7 933.3 447.3 946.7 444.7L960 442L960 541L946.7 541C933.3 541 906.7 541 880 541C853.3 541 826.7 541 800 541C773.3 541 746.7 541 720 541C693.3 541 666.7 541 640 541C613.3 541 586.7 541 560 541C533.3 541 506.7 541 480 541C453.3 541 426.7 541 400 541C373.3 541 346.7 541 320 541C293.3 541 266.7 541 240 541C213.3 541 186.7 541 160 541C133.3 541 106.7 541 80 541C53.3 541 26.7 541 13.3 541L0 541Z" fill="#ef5f67"></path><path d="M0 487L13.3 484.2C26.7 481.3 53.3 475.7 80 473C106.7 470.3 133.3 470.7 160 470C186.7 469.3 213.3 467.7 240 464C266.7 460.3 293.3 454.7 320 454.5C346.7 454.3 373.3 459.7 400 464.3C426.7 469 453.3 473 480 470C506.7 467 533.3 457 560 453.2C586.7 449.3 613.3 451.7 640 450.5C666.7 449.3 693.3 444.7 720 450C746.7 455.3 773.3 470.7 800 476.3C826.7 482 853.3 478 880 474.8C906.7 471.7 933.3 469.3 946.7 468.2L960 467L960 541L946.7 541C933.3 541 906.7 541 880 541C853.3 541 826.7 541 800 541C773.3 541 746.7 541 720 541C693.3 541 666.7 541 640 541C613.3 541 586.7 541 560 541C533.3 541 506.7 541 480 541C453.3 541 426.7 541 400 541C373.3 541 346.7 541 320 541C293.3 541 266.7 541 240 541C213.3 541 186.7 541 160 541C133.3 541 106.7 541 80 541C53.3 541 26.7 541 13.3 541L0 541Z" fill="#e34c67"></path><path d="M0 500L13.3 499.8C26.7 499.7 53.3 499.3 80 496C106.7 492.7 133.3 486.3 160 485.3C186.7 484.3 213.3 488.7 240 493.2C266.7 497.7 293.3 502.3 320 499.5C346.7 496.7 373.3 486.3 400 483.8C426.7 481.3 453.3 486.7 480 489.3C506.7 492 533.3 492 560 490.3C586.7 488.7 613.3 485.3 640 488.5C666.7 491.7 693.3 501.3 720 499.5C746.7 497.7 773.3 484.3 800 481C826.7 477.7 853.3 484.3 880 488.7C906.7 493 933.3 495 946.7 496L960 497L960 541L946.7 541C933.3 541 906.7 541 880 541C853.3 541 826.7 541 800 541C773.3 541 746.7 541 720 541C693.3 541 666.7 541 640 541C613.3 541 586.7 541 560 541C533.3 541 506.7 541 480 541C453.3 541 426.7 541 400 541C373.3 541 346.7 541 320 541C293.3 541 266.7 541 240 541C213.3 541 186.7 541 160 541C133.3 541 106.7 541 80 541C53.3 541 26.7 541 13.3 541L0 541Z" fill="#d53867"></path><path d="M0 534L13.3 528.3C26.7 522.7 53.3 511.3 80 510.2C106.7 509 133.3 518 160 519.5C186.7 521 213.3 515 240 514.2C266.7 513.3 293.3 517.7 320 516.5C346.7 515.3 373.3 508.7 400 503.8C426.7 499 453.3 496 480 496.3C506.7 496.7 533.3 500.3 560 501.7C586.7 503 613.3 502 640 502C666.7 502 693.3 503 720 502.3C746.7 501.7 773.3 499.3 800 501.3C826.7 503.3 853.3 509.7 880 511.2C906.7 512.7 933.3 509.3 946.7 507.7L960 506L960 541L946.7 541C933.3 541 906.7 541 880 541C853.3 541 826.7 541 800 541C773.3 541 746.7 541 720 541C693.3 541 666.7 541 640 541C613.3 541 586.7 541 560 541C533.3 541 506.7 541 480 541C453.3 541 426.7 541 400 541C373.3 541 346.7 541 320 541C293.3 541 266.7 541 240 541C213.3 541 186.7 541 160 541C133.3 541 106.7 541 80 541C53.3 541 26.7 541 13.3 541L0 541Z" fill="#c62368"></path></svg>