<svg id="visual" viewBox="0 0 960 400" width="960" height="400" xmlns="http://www.w3.org/2000/svg" xmlns:xlink="http://www.w3.org/1999/xlink" version="1.1"><rect x="0" y="0" width="960" height="400" fill="#0e1217"></rect><path d="M0 156L9.3 157.2C18.7 158.3 37.3 160.7 56.2 159.5C75 158.3 94 153.7 112.8 152.8C131.7 152 150.3 155 169.2 157.5C188 160 207 162 225.8 163C244.7 164 263.3 164 282.2 161.2C301 158.3 320 152.7 338.8 152.7C357.7 152.7 376.3 158.3 395.2 157.7C414 157 433 150 451.8 148C470.7 146 489.3 149 508.2 152.8C527 156.7 546 161.3 564.8 163.2C583.7 165 602.3 164 621.2 163.5C640 163 659 163 677.8 162.5C696.7 162 715.3 161 734.2 161C753 161 772 162 790.8 161.2C809.7 160.3 828.3 157.7 847.2 158.2C866 158.7 885 162.3 903.8 163.2C922.7 164 941.3 162 950.7 161L960 160L960 401L950.7 401C941.3 401 922.7 401 903.8 401C885 401 866 401 847.2 401C828.3 401 809.7 401 790.8 401C772 401 753 401 734.2 401C715.3 401 696.7 401 677.8 401C659 401 640 401 621.2 401C602.3 401 583.7 401 564.8 401C546 401 527 401 508.2 401C489.3 401 470.7 401 451.8 401C433 401 414 401 395.2 401C376.3 401 357.7 401 338.8 401C320 401 301 401 282.2 401C263.3 401 244.7 401 225.8 401C207 401 188 401 169.2 401C150.3 401 131.7 401 112.8 401C94 401 75 401 56.2 401C37.3 401 18.7 401 9.3 401L0 401Z" fill="#fa7268"></path><path d="M0 183L9.3 182C18.7 181 37.3 179 56.2 178C75 177 94 177 112.8 179.5C131.7 182 150.3 187 169.2 188.5C188 190 207 188 225.8 185.3C244.7 182.7 263.3 179.3 282.2 180.5C301 181.7 320 187.3 338.8 186.2C357.7 185 376.3 177 395.2 174.7C414 172.3 433 175.7 451.8 176.2C470.7 176.7 489.3 174.3 508.2 173C527 171.7 546 171.3 564.8 171.5C583.7 171.7 602.3 172.3 621.2 172.2C640 172 659 171 677.8 174.7C696.7 178.3 715.3 186.7 734.2 189.7C753 192.7 772 190.3 790.8 189.3C809.7 188.3 828.3 188.7 847.2 186.5C866 184.3 885 179.7 903.8 177C922.7 174.3 941.3 173.7 950.7 173.3L960 173L960 401L950.7 401C941.3 401 922.7 401 903.8 401C885 401 866 401 847.2 401C828.3 401 809.7 401 790.8 401C772 401 753 401 734.2 401C715.3 401 696.7 401 677.8 401C659 401 640 401 621.2 401C602.3 401 583.7 401 564.8 401C546 401 527 401 508.2 401C489.3 401 470.7 401 451.8 401C433 401 414 401 395.2 401C376.3 401 357.7 401 338.8 401C320 401 301 401 282.2 401C263.3 401 244.7 401 225.8 401C207 401 188 401 169.2 401C150.3 401 131.7 401 112.8 401C94 401 75 401 56.2 401C37.3 401 18.7 401 9.3 401L0 401Z" fill="#f46767"></path><path d="M0 211L9.3 212.7C18.7 214.3 37.3 217.7 56.2 219.3C75 221 94 221 112.8 220.7C131.7 220.3 150.3 219.7 169.2 217.5C188 215.3 207 211.7 225.8 209.8C244.7 208 263.3 208 282.2 209.7C301 211.3 320 214.7 338.8 217.2C357.7 219.7 376.3 221.3 395.2 219.3C414 217.3 433 211.7 451.8 208.2C470.7 204.7 489.3 203.3 508.2 202.8C527 202.3 546 202.7 564.8 205C583.7 207.3 602.3 211.7 621.2 215C640 218.3 659 220.7 677.8 218.7C696.7 216.7 715.3 210.3 734.2 210C753 209.7 772 215.3 790.8 217.7C809.7 220 828.3 219 847.2 216.8C866 214.7 885 211.3 903.8 211.2C922.7 211 941.3 214 950.7 215.5L960 217L960 401L950.7 401C941.3 401 922.7 401 903.8 401C885 401 866 401 847.2 401C828.3 401 809.7 401 790.8 401C772 401 753 401 734.2 401C715.3 401 696.7 401 677.8 401C659 401 640 401 621.2 401C602.3 401 583.7 401 564.8 401C546 401 527 401 508.2 401C489.3 401 470.7 401 451.8 401C433 401 414 401 395.2 401C376.3 401 357.7 401 338.8 401C320 401 301 401 282.2 401C263.3 401 244.7 401 225.8 401C207 401 188 401 169.2 401C150.3 401 131.7 401 112.8 401C94 401 75 401 56.2 401C37.3 401 18.7 401 9.3 401L0 401Z" fill="#ee5c67"></path><path d="M0 250L9.3 248.3C18.7 246.7 37.3 243.3 56.2 240.5C75 237.7 94 235.3 112.8 236.3C131.7 237.3 150.3 241.7 169.2 243C188 244.3 207 242.7 225.8 240.3C244.7 238 263.3 235 282.2 233.5C301 232 320 232 338.8 234.2C357.7 236.3 376.3 240.7 395.2 241.7C414 242.7 433 240.3 451.8 240.3C470.7 240.3 489.3 242.7 508.2 244C527 245.3 546 245.7 564.8 245.8C583.7 246 602.3 246 621.2 246.8C640 247.7 659 249.3 677.8 250.3C696.7 251.3 715.3 251.7 734.2 252.2C753 252.7 772 253.3 790.8 253.2C809.7 253 828.3 252 847.2 248.5C866 245 885 239 903.8 238.3C922.7 237.7 941.3 242.3 950.7 244.7L960 247L960 401L950.7 401C941.3 401 922.7 401 903.8 401C885 401 866 401 847.2 401C828.3 401 809.7 401 790.8 401C772 401 753 401 734.2 401C715.3 401 696.7 401 677.8 401C659 401 640 401 621.2 401C602.3 401 583.7 401 564.8 401C546 401 527 401 508.2 401C489.3 401 470.7 401 451.8 401C433 401 414 401 395.2 401C376.3 401 357.7 401 338.8 401C320 401 301 401 282.2 401C263.3 401 244.7 401 225.8 401C207 401 188 401 169.2 401C150.3 401 131.7 401 112.8 401C94 401 75 401 56.2 401C37.3 401 18.7 401 9.3 401L0 401Z" fill="#e75167"></path><path d="M0 277L9.3 275.3C18.7 273.7 37.3 270.3 56.2 269.2C75 268 94 269 112.8 270.3C131.7 271.7 150.3 273.3 169.2 272.8C188 272.3 207 269.7 225.8 268.3C244.7 267 263.3 267 282.2 266.3C301 265.7 320 264.3 338.8 265.5C357.7 266.7 376.3 270.3 395.2 273.3C414 276.3 433 278.7 451.8 279.2C470.7 279.7 489.3 278.3 508.2 275.8C527 273.3 546 269.7 564.8 267.5C583.7 265.3 602.3 264.7 621.2 265.7C640 266.7 659 269.3 677.8 269.8C696.7 270.3 715.3 268.7 734.2 267.8C753 267 772 267 790.8 269.3C809.7 271.7 828.3 276.3 847.2 275.7C866 275 885 269 903.8 268C922.7 267 941.3 271 950.7 273L960 275L960 401L950.7 401C941.3 401 922.7 401 903.8 401C885 401 866 401 847.2 401C828.3 401 809.7 401 790.8 401C772 401 753 401 734.2 401C715.3 401 696.7 401 677.8 401C659 401 640 401 621.2 401C602.3 401 583.7 401 564.8 401C546 401 527 401 508.2 401C489.3 401 470.7 401 451.8 401C433 401 414 401 395.2 401C376.3 401 357.7 401 338.8 401C320 401 301 401 282.2 401C263.3 401 244.7 401 225.8 401C207 401 188 401 169.2 401C150.3 401 131.7 401 112.8 401C94 401 75 401 56.2 401C37.3 401 18.7 401 9.3 401L0 401Z" fill="#df4667"></path><path d="M0 298L9.3 298.5C18.7 299 37.3 300 56.2 301.3C75 302.7 94 304.3 112.8 303.8C131.7 303.3 150.3 300.7 169.2 301.7C188 302.7 207 307.3 225.8 307.2C244.7 307 263.3 302 282.2 300.7C301 299.3 320 301.7 338.8 303.2C357.7 304.7 376.3 305.3 395.2 304.7C414 304 433 302 451.8 300.5C470.7 299 489.3 298 508.2 297C527 296 546 295 564.8 294.5C583.7 294 602.3 294 621.2 296.8C640 299.7 659 305.3 677.8 305.8C696.7 306.3 715.3 301.7 734.2 299.8C753 298 772 299 790.8 300.8C809.7 302.7 828.3 305.3 847.2 306.2C866 307 885 306 903.8 306.3C922.7 306.7 941.3 308.3 950.7 309.2L960 310L960 401L950.7 401C941.3 401 922.7 401 903.8 401C885 401 866 401 847.2 401C828.3 401 809.7 401 790.8 401C772 401 753 401 734.2 401C715.3 401 696.7 401 677.8 401C659 401 640 401 621.2 401C602.3 401 583.7 401 564.8 401C546 401 527 401 508.2 401C489.3 401 470.7 401 451.8 401C433 401 414 401 395.2 401C376.3 401 357.7 401 338.8 401C320 401 301 401 282.2 401C263.3 401 244.7 401 225.8 401C207 401 188 401 169.2 401C150.3 401 131.7 401 112.8 401C94 401 75 401 56.2 401C37.3 401 18.7 401 9.3 401L0 401Z" fill="#d73b67"></path><path d="M0 329L9.3 330.3C18.7 331.7 37.3 334.3 56.2 335.2C75 336 94 335 112.8 334.5C131.7 334 150.3 334 169.2 334.5C188 335 207 336 225.8 335.3C244.7 334.7 263.3 332.3 282.2 331C301 329.7 320 329.3 338.8 330.7C357.7 332 376.3 335 395.2 335C414 335 433 332 451.8 330.2C470.7 328.3 489.3 327.7 508.2 329.5C527 331.3 546 335.7 564.8 335.5C583.7 335.3 602.3 330.7 621.2 330.8C640 331 659 336 677.8 336.2C696.7 336.3 715.3 331.7 734.2 329.8C753 328 772 329 790.8 329C809.7 329 828.3 328 847.2 328C866 328 885 329 903.8 329.8C922.7 330.7 941.3 331.3 950.7 331.7L960 332L960 401L950.7 401C941.3 401 922.7 401 903.8 401C885 401 866 401 847.2 401C828.3 401 809.7 401 790.8 401C772 401 753 401 734.2 401C715.3 401 696.7 401 677.8 401C659 401 640 401 621.2 401C602.3 401 583.7 401 564.8 401C546 401 527 401 508.2 401C489.3 401 470.7 401 451.8 401C433 401 414 401 395.2 401C376.3 401 357.7 401 338.8 401C320 401 301 401 282.2 401C263.3 401 244.7 401 225.8 401C207 401 188 401 169.2 401C150.3 401 131.7 401 112.8 401C94 401 75 401 56.2 401C37.3 401 18.7 401 9.3 401L0 401Z" fill="#cf3068"></path><path d="M0 357L9.3 358C18.7 359 37.3 361 56.2 361.3C75 361.7 94 360.3 112.8 359.7C131.7 359 150.3 359 169.2 359.5C188 360 207 361 225.8 362.7C244.7 364.3 263.3 366.7 282.2 366.8C301 367 320 365 338.8 365.2C357.7 365.3 376.3 367.7 395.2 366.7C414 365.7 433 361.3 451.8 360.8C470.7 360.3 489.3 363.7 508.2 365.8C527 368 546 369 564.8 369C583.7 369 602.3 368 621.2 366.2C640 364.3 659 361.7 677.8 360C696.7 358.3 715.3 357.7 734.2 359.5C753 361.3 772 365.7 790.8 365.5C809.7 365.3 828.3 360.7 847.2 359.5C866 358.3 885 360.7 903.8 362.5C922.7 364.3 941.3 365.7 950.7 366.3L960 367L960 401L950.7 401C941.3 401 922.7 401 903.8 401C885 401 866 401 847.2 401C828.3 401 809.7 401 790.8 401C772 401 753 401 734.2 401C715.3 401 696.7 401 677.8 401C659 401 640 401 621.2 401C602.3 401 583.7 401 564.8 401C546 401 527 401 508.2 401C489.3 401 470.7 401 451.8 401C433 401 414 401 395.2 401C376.3 401 357.7 401 338.8 401C320 401 301 401 282.2 401C263.3 401 244.7 401 225.8 401C207 401 188 401 169.2 401C150.3 401 131.7 401 112.8 401C94 401 75 401 56.2 401C37.3 401 18.7 401 9.3 401L0 401Z" fill="#c62368"></path></svg>